<svg viewBox="0 0 24 24" fill="none" xmlns="http://www.w3.org/2000/svg">
<path d="M9.47825 20.2608C9.47826 21.2213 8.69962 21.9999 7.73913 21.9999C6.77863 21.9999 5.99999 21.2213 6 20.2608V3.73915C5.99999 2.77866 6.77863 2 7.73912 2C8.69962 2 9.47826 2.77866 9.47825 3.73915V13.7934L14.3431 8.92857C15.0223 8.24938 16.1234 8.24941 16.8026 8.92857C17.4817 9.60777 17.4818 10.7089 16.8026 11.3881L13.2869 14.9037L17.4143 19.0311C18.0935 19.7103 18.0935 20.8115 17.4143 21.4906C16.7351 22.1698 15.634 22.1698 14.9548 21.4906L9.47825 16.014V20.2608Z" fill="currentColor"/>
</svg>
