<svg width="389" height="289" viewBox="0 0 389 289" fill="none" xmlns="http://www.w3.org/2000/svg">
<rect y="75" width="389" height="201" fill="url(#paint0_linear_13_186)"/>
<path d="M4 0H19.7932L24.0857 5.08577L28.3377 0H44.1309V9.63875L39.15 15.5964L44.1309 15.6932V30.7084H28.3782L29.3096 29.5943L28.3782 28.4319L22.5064 35.4551L23.4783 36.5691L27.0419 32.3068H44.1309V40.4924L37.7327 48H7.44211V35.4067L11.3297 30.7568L4 30.7084V15.6932H18.7808L17.404 17.3885L18.3354 18.5025L22.8708 13.0777L21.9395 11.9152L20.1172 14.0949H8.00904L4 9.2997V0Z" fill="#2C1504"/>
<path d="M70.6554 0H85.5982V17.6307L69.7645 26.5429H61.2605V28.1413H69.7645L85.5982 36.9082V48H64.0546V45.0454L45.4673 34.7286V19.2775L70.6554 5.27952V0Z" fill="#2C1504"/>
<path d="M98.4757 0H113.945L113.904 4.35923L123.38 0H127.025V15.4511L113.945 21.6024V34.3895L101.553 34.4379V27.3179L96.8964 29.449L97.3823 30.9506L100.177 29.6428V36.0363L115.281 35.9879V22.668L127.025 17.1948V48H86.9345V16.9041L101.31 9.88093L98.4757 0Z" fill="#2C1504"/>
<path d="M136.501 0H155.817L160.92 12.4965H136.501V0ZM128.402 7.99193H135.165V14.0949H163.066L160.596 7.99193H168.533V33.9051L160.069 47.9516H128.402V44.2704L133.221 33.5661H151.93V31.9677H128.402V7.99193Z" fill="#2C1504"/>
<path d="M189.995 0H210V24.4601L193.842 35.552V27.1726H176.915L189.995 0ZM169.869 28.7709H192.506V48H169.869V28.7709Z" fill="#2C1504"/>
<path d="M11 145H60.6839V170.237H48.5986V190.796H60.6839V206H11V190.796H22.982V170.237H11V145Z" fill="#FFEDD6"/>
<path d="M63.886 145H85.3709L96.9398 165.928L100.142 165.313L94.4608 154.91V145H113.363L113.57 206H91.7751L80.2063 185.01L77.0042 185.626L82.6853 196.028V206H63.886V145ZM63.886 145H85.4742L97.0431 165.928L100.348 165.251L94.5641 154.91V145H113.57V206H91.8784L80.3096 185.01L77.0042 185.687L82.7886 196.028V206H63.886V145Z" fill="#FFEDD6"/>
<path d="M129.684 145H166.456V178.547L147.45 164.02L144.764 165.251L166.456 181.871V195.967L153.441 206H116.772V177.808L135.675 192.335L138.36 191.104L116.772 174.484V154.91L129.684 145Z" fill="#FFEDD6"/>
<path d="M169.658 145H219.342V180.086H208.186L209.942 170.545L206.534 170.299L204.571 180.824V189.996H213.764V206H175.133V189.996H184.326V180.824L182.363 170.299L178.954 170.545L180.71 180.086H169.658V145Z" fill="#FFEDD6"/>
<path d="M237.212 145H272.228V206H251.363V200.583H237.625L235.352 206H222.544V179.901L237.212 145ZM252.292 165.436L243.616 185.995L247.024 186.487L255.598 165.928L252.292 165.436Z" fill="#FFEDD6"/>
<path d="M275.43 145H296.915L308.484 165.928L311.686 165.313L306.005 154.91V145H324.907L325.114 206H303.319L291.75 185.01L288.548 185.626L294.229 196.028V206H275.43V145ZM275.43 145H297.018L308.587 165.928L311.892 165.251L306.108 154.91V145H325.114V206H303.422L291.854 185.01L288.548 185.687L294.333 196.028V206H275.43V145Z" fill="#FFEDD6"/>
<path d="M328.316 145H378V180.086H366.844L368.6 170.545L365.192 170.299L363.229 180.824V189.996H372.422V206H333.791V189.996H342.984V180.824L341.021 170.299L337.612 170.545L339.368 180.086H328.316V145Z" fill="#FFEDD6"/>
<path d="M11 75H36.9597V84.7191L40.7028 85.1497L50.6037 75H69.0774V89.2096L52.4149 106.187L56.0371 107.11L59.7802 103.235H69.0774V135.96H50.6037L40.7028 125.749L36.9597 126.179V135.96H11V75Z" fill="#FFEDD6"/>
<path d="M72.8204 75H121.963L130.898 88.8405V135.96H81.6347L72.8204 122.058V75ZM96.7275 94.2537L92.9845 94.8688L106.87 116.645L110.613 116.029L96.7275 94.2537Z" fill="#FFEDD6"/>
<path d="M134.641 75H183.783L192.718 88.8405V135.96H143.455L134.641 122.058V75ZM158.548 94.2537L154.805 94.8688L168.69 116.645L172.433 116.029L158.548 94.2537Z" fill="#FFEDD6"/>
<path d="M196.461 75H223.387V99.4208H220.368V101.451H230.511V99.4208H227.492V75H254.539V135.96H227.492V121.689H230.511V119.659H220.368V121.689H223.387V135.96H196.461V75Z" fill="#FFEDD6"/>
<path d="M258.282 75H316.359V100.22H302.232V120.766H316.359V135.96H258.282V120.766H272.288V100.22H258.282V75Z" fill="#FFEDD6"/>
<path d="M320.102 75H378.18V100.22H364.053V120.766H378.18V135.96H320.102V120.766H334.108V100.22H320.102V75Z" fill="#FFEDD6"/>
<path d="M26.0929 214.849H69.0775V248.374L46.8607 233.856L43.7214 235.087L69.0775 251.695V265.782L53.8638 275.808H11V247.635L33.096 262.153L36.2353 260.922L11 244.314V224.752L26.0929 214.849Z" fill="#FFEDD6"/>
<path d="M72.8204 214.849H130.898V229.058H97.452V231.088H124.257V250.834H97.452V252.864H130.898V275.808H72.8204V214.849Z" fill="#FFEDD6"/>
<path d="M151.786 214.849H192.718V275.808H168.328V270.395H152.269L149.613 275.808H134.641V249.727L151.786 214.849ZM169.415 235.271L159.272 255.817L163.257 256.309L173.279 235.763L169.415 235.271Z" fill="#FFEDD6"/>
<path d="M196.461 214.849H238.48L254.539 226.167V246.774L242.706 255.078L254.539 263.383V275.808H234.978L219.886 265.167L216.625 266.335L223.508 271.133V275.808H196.461V214.849ZM232.081 236.932L216.625 247.881L219.886 249.05L235.341 238.162L232.081 236.932Z" fill="#FFEDD6"/>
<path d="M258.282 214.849H301.629L317.567 224.014V249.481H291.003V243.452H286.898V257.539H291.003V251.511H317.567V275.808H275.789L258.282 265.597V214.849Z" fill="#FFEDD6"/>
<path d="M320.102 214.849H347.028V239.27H344.009V241.299H354.152V239.27H351.133V214.849H378.18V275.808H351.133V261.537H354.152V259.507H344.009V261.537H347.028V275.808H320.102V214.849Z" fill="#FFEDD6"/>
<path d="M11 145H60.6839V170.237H48.5986V190.796H60.6839V206H11V190.796H22.982V170.237H11V145Z" fill="#FFEDD6"/>
<path d="M63.886 145H85.3709L96.9398 165.928L100.142 165.313L94.4608 154.91V145H113.363L113.57 206H91.7751L80.2063 185.01L77.0042 185.626L82.6853 196.028V206H63.886V145ZM63.886 145H85.4742L97.0431 165.928L100.348 165.251L94.5641 154.91V145H113.57V206H91.8784L80.3096 185.01L77.0042 185.687L82.7886 196.028V206H63.886V145Z" fill="#FFEDD6"/>
<path d="M129.684 145H166.456V178.547L147.45 164.02L144.764 165.251L166.456 181.871V195.967L153.441 206H116.772V177.808L135.675 192.335L138.36 191.104L116.772 174.484V154.91L129.684 145Z" fill="#FFEDD6"/>
<path d="M169.658 145H219.342V180.086H208.186L209.942 170.545L206.534 170.299L204.571 180.824V189.996H213.764V206H175.133V189.996H184.326V180.824L182.363 170.299L178.954 170.545L180.71 180.086H169.658V145Z" fill="#FFEDD6"/>
<path d="M237.212 145H272.228V206H251.363V200.583H237.625L235.352 206H222.544V179.901L237.212 145ZM252.292 165.436L243.616 185.995L247.024 186.487L255.598 165.928L252.292 165.436Z" fill="#FFEDD6"/>
<path d="M275.43 145H296.915L308.484 165.928L311.686 165.313L306.005 154.91V145H324.907L325.114 206H303.319L291.75 185.01L288.548 185.626L294.229 196.028V206H275.43V145ZM275.43 145H297.018L308.587 165.928L311.892 165.251L306.108 154.91V145H325.114V206H303.422L291.854 185.01L288.548 185.687L294.333 196.028V206H275.43V145Z" fill="#FFEDD6"/>
<path d="M328.316 145H378V180.086H366.844L368.6 170.545L365.192 170.299L363.229 180.824V189.996H372.422V206H333.791V189.996H342.984V180.824L341.021 170.299L337.612 170.545L339.368 180.086H328.316V145Z" fill="#FFEDD6"/>
<path d="M0 276H389L375 289H14L0 276Z" fill="#4D290F"/>
<path d="M0 75H389L375 62H14L0 75Z" fill="#2C1504"/>
<path d="M388.5 263H381L369 276H388.5V263Z" fill="#4D290F"/>
<path d="M0 263H7.5L19.5 276H0V263Z" fill="#4D290F"/>
<path d="M388.5 88H381L369 75H388.5V88Z" fill="#2C1504"/>
<path d="M0 88H7.5L19.5 75H0V88Z" fill="#2C1504"/>
<defs>
<linearGradient id="paint0_linear_13_186" x1="194.5" y1="75" x2="194.5" y2="276" gradientUnits="userSpaceOnUse">
<stop stop-color="#2C1504"/>
<stop offset="1" stop-color="#4D290F"/>
</linearGradient>
</defs>
</svg>
