<svg width="389" height="227" viewBox="0 0 389 227" fill="none" xmlns="http://www.w3.org/2000/svg">
<rect y="13" width="389" height="201" fill="url(#paint0_linear_13_186)"/>
<path d="M11 83H60.6839V108.237H48.5986V128.796H60.6839V144H11V128.796H22.982V108.237H11V83Z" fill="#FFEDD6"/>
<path d="M63.886 83H85.3709L96.9398 103.928L100.142 103.313L94.4608 92.9102V83H113.363L113.57 144H91.7751L80.2063 123.01L77.0042 123.626L82.6853 134.028V144H63.886V83ZM63.886 83H85.4742L97.0431 103.928L100.348 103.251L94.5641 92.9102V83H113.57V144H91.8784L80.3096 123.01L77.0042 123.687L82.7886 134.028V144H63.886V83Z" fill="#FFEDD6"/>
<path d="M129.684 83H166.456V116.547L147.45 102.02L144.764 103.251L166.456 119.871V133.967L153.441 144H116.772V115.808L135.675 130.335L138.36 129.104L116.772 112.484V92.9102L129.684 83Z" fill="#FFEDD6"/>
<path d="M169.658 83H219.342V118.086H208.186L209.942 108.545L206.534 108.299L204.571 118.824V127.996H213.764V144H175.133V127.996H184.326V118.824L182.363 108.299L178.954 108.545L180.71 118.086H169.658V83Z" fill="#FFEDD6"/>
<path d="M237.212 83H272.228V144H251.363V138.583H237.625L235.352 144H222.544V117.901L237.212 83ZM252.292 103.436L243.616 123.995L247.024 124.487L255.598 103.928L252.292 103.436Z" fill="#FFEDD6"/>
<path d="M275.43 83H296.915L308.484 103.928L311.686 103.313L306.005 92.9102V83H324.907L325.114 144H303.319L291.75 123.01L288.548 123.626L294.229 134.028V144H275.43V83ZM275.43 83H297.018L308.587 103.928L311.892 103.251L306.108 92.9102V83H325.114V144H303.422L291.854 123.01L288.548 123.687L294.333 134.028V144H275.43V83Z" fill="#FFEDD6"/>
<path d="M328.316 83H378V118.086H366.844L368.6 108.545L365.192 108.299L363.229 118.824V127.996H372.422V144H333.791V127.996H342.984V118.824L341.021 108.299L337.612 108.545L339.368 118.086H328.316V83Z" fill="#FFEDD6"/>
<path d="M11 13H36.9597V22.7191L40.7028 23.1497L50.6037 13H69.0774V27.2096L52.4149 44.1873L56.0371 45.11L59.7802 41.2346H69.0774V73.9597H50.6037L40.7028 63.7485L36.9597 64.1791V73.9597H11V13Z" fill="#FFEDD6"/>
<path d="M72.8204 13H121.963L130.898 26.8405V73.9597H81.6347L72.8204 60.0577V13ZM96.7275 32.2537L92.9845 32.8688L106.87 54.6445L110.613 54.0294L96.7275 32.2537Z" fill="#FFEDD6"/>
<path d="M134.641 13H183.783L192.718 26.8405V73.9597H143.455L134.641 60.0577V13ZM158.548 32.2537L154.805 32.8688L168.69 54.6445L172.433 54.0294L158.548 32.2537Z" fill="#FFEDD6"/>
<path d="M196.461 13H223.387V37.4208H220.368V39.4507H230.511V37.4208H227.492V13H254.539V73.9597H227.492V59.6886H230.511V57.6587H220.368V59.6886H223.387V73.9597H196.461V13Z" fill="#FFEDD6"/>
<path d="M258.282 13H316.359V38.2205H302.232V58.7659H316.359V73.9597H258.282V58.7659H272.288V38.2205H258.282V13Z" fill="#FFEDD6"/>
<path d="M320.102 13H378.18V38.2205H364.053V58.7659H378.18V73.9597H320.102V58.7659H334.108V38.2205H320.102V13Z" fill="#FFEDD6"/>
<path d="M26.0929 152.849H69.0775V186.374L46.8607 171.856L43.7214 173.087L69.0775 189.695V203.782L53.8638 213.808H11V185.635L33.096 200.153L36.2353 198.922L11 182.314V162.752L26.0929 152.849Z" fill="#FFEDD6"/>
<path d="M72.8204 152.849H130.898V167.058H97.452V169.088H124.257V188.834H97.452V190.864H130.898V213.808H72.8204V152.849Z" fill="#FFEDD6"/>
<path d="M151.786 152.849H192.718V213.808H168.328V208.395H152.269L149.613 213.808H134.641V187.727L151.786 152.849ZM169.415 173.271L159.272 193.817L163.257 194.309L173.279 173.763L169.415 173.271Z" fill="#FFEDD6"/>
<path d="M196.461 152.849H238.48L254.539 164.167V184.774L242.706 193.078L254.539 201.383V213.808H234.978L219.886 203.167L216.625 204.335L223.508 209.133V213.808H196.461V152.849ZM232.081 174.932L216.625 185.881L219.886 187.05L235.341 176.162L232.081 174.932Z" fill="#FFEDD6"/>
<path d="M258.282 152.849H301.629L317.567 162.014V187.481H291.003V181.452H286.898V195.539H291.003V189.511H317.567V213.808H275.789L258.282 203.597V152.849Z" fill="#FFEDD6"/>
<path d="M320.102 152.849H347.028V177.27H344.009V179.299H354.152V177.27H351.133V152.849H378.18V213.808H351.133V199.537H354.152V197.507H344.009V199.537H347.028V213.808H320.102V152.849Z" fill="#FFEDD6"/>
<path d="M11 83H60.6839V108.237H48.5986V128.796H60.6839V144H11V128.796H22.982V108.237H11V83Z" fill="#FFEDD6"/>
<path d="M63.886 83H85.3709L96.9398 103.928L100.142 103.313L94.4608 92.9102V83H113.363L113.57 144H91.7751L80.2063 123.01L77.0042 123.626L82.6853 134.028V144H63.886V83ZM63.886 83H85.4742L97.0431 103.928L100.348 103.251L94.5641 92.9102V83H113.57V144H91.8784L80.3096 123.01L77.0042 123.687L82.7886 134.028V144H63.886V83Z" fill="#FFEDD6"/>
<path d="M129.684 83H166.456V116.547L147.45 102.02L144.764 103.251L166.456 119.871V133.967L153.441 144H116.772V115.808L135.675 130.335L138.36 129.104L116.772 112.484V92.9102L129.684 83Z" fill="#FFEDD6"/>
<path d="M169.658 83H219.342V118.086H208.186L209.942 108.545L206.534 108.299L204.571 118.824V127.996H213.764V144H175.133V127.996H184.326V118.824L182.363 108.299L178.954 108.545L180.71 118.086H169.658V83Z" fill="#FFEDD6"/>
<path d="M237.212 83H272.228V144H251.363V138.583H237.625L235.352 144H222.544V117.901L237.212 83ZM252.292 103.436L243.616 123.995L247.024 124.487L255.598 103.928L252.292 103.436Z" fill="#FFEDD6"/>
<path d="M275.43 83H296.915L308.484 103.928L311.686 103.313L306.005 92.9102V83H324.907L325.114 144H303.319L291.75 123.01L288.548 123.626L294.229 134.028V144H275.43V83ZM275.43 83H297.018L308.587 103.928L311.892 103.251L306.108 92.9102V83H325.114V144H303.422L291.854 123.01L288.548 123.687L294.333 134.028V144H275.43V83Z" fill="#FFEDD6"/>
<path d="M328.316 83H378V118.086H366.844L368.6 108.545L365.192 108.299L363.229 118.824V127.996H372.422V144H333.791V127.996H342.984V118.824L341.021 108.299L337.612 108.545L339.368 118.086H328.316V83Z" fill="#FFEDD6"/>
<path d="M0 214H389L375 227H14L0 214Z" fill="#4D290F"/>
<path d="M0 13H389L375 0H14L0 13Z" fill="#2C1504"/>
<path d="M388.5 201H381L369 214H388.5V201Z" fill="#4D290F"/>
<path d="M0 201H7.5L19.5 214H0V201Z" fill="#4D290F"/>
<path d="M388.5 26H381L369 13H388.5V26Z" fill="#2C1504"/>
<path d="M0 26H7.5L19.5 13H0V26Z" fill="#2C1504"/>
<defs>
<linearGradient id="paint0_linear_13_186" x1="194.5" y1="13" x2="194.5" y2="214" gradientUnits="userSpaceOnUse">
<stop stop-color="#2C1504"/>
<stop offset="1" stop-color="#4D290F"/>
</linearGradient>
</defs>
</svg>
