<svg width="165" height="48" viewBox="0 0 165 48" fill="none" xmlns="http://www.w3.org/2000/svg">
<path d="M0 0H15.7932L20.0857 5.08577L24.3377 0H40.1309V9.63875L35.15 15.5964L40.1309 15.6932V30.7084H24.3782L25.3096 29.5943L24.3782 28.4319L18.5064 35.4551L19.4783 36.5691L23.0419 32.3068H40.1309V40.4924L33.7327 48H3.44211V35.4067L7.32966 30.7568L0 30.7084V15.6932H14.7808L13.404 17.3885L14.3354 18.5025L18.8708 13.0777L17.9395 11.9152L16.1172 14.0949H4.00904L0 9.2997V0Z" fill="#2C1504"/>
<path d="M66.6554 0H81.5982V17.6307L65.7645 26.5429H57.2605V28.1413H65.7645L81.5982 36.9082V48H60.0546V45.0454L41.4673 34.7286V19.2775L66.6554 5.27952V0Z" fill="#2C1504"/>
<path d="M94.4757 0H109.945L109.904 4.35923L119.38 0H123.025V15.4511L109.945 21.6024V34.3895L97.5534 34.4379V27.3179L92.8964 29.449L93.3823 30.9506L96.1765 29.6428V36.0363L111.281 35.9879V22.668L123.025 17.1948V48H82.9345V16.9041L97.3104 9.88093L94.4757 0Z" fill="#2C1504"/>
<path d="M132.501 0H151.817L156.92 12.4965H132.501V0ZM124.402 7.99193H131.165V14.0949H159.066L156.596 7.99193H164.533V33.9051L156.069 47.9516H124.402V44.2704L129.221 33.5661H147.93V31.9677H124.402V7.99193Z" fill="#2C1504"/>
</svg>
